<?xml version="1.0" encoding="utf-8"?>
<!-- Generator: Adobe Illustrator 19.0.0, SVG Export Plug-In . SVG Version: 6.00 Build 0)  -->
<svg version="1.1" id="Layer_1" xmlns="http://www.w3.org/2000/svg" xmlns:xlink="http://www.w3.org/1999/xlink" x="0px" y="0px"
	 viewBox="0 0 103.1 76.1" style="enable-background:new 0 0 103.1 76.1;" xml:space="preserve">
<style type="text/css">
	.st0{fill:#808080;}
	.st1{fill:#FFFFFF;}
</style>
<path id="XMLID_148_" class="st0" d="M51.5,76c-15,0-30,0.3-45-0.3c-2.2-0.1-6.1-4-6.1-6.2c-0.5-21-0.2-42-0.3-63C0,2,1.4,0,6.3,0
	c30.2,0.1,60.3-0.1,90.5,0.3c2.1,0,5.9,3.8,6,5.9c0.4,21.1,0.5,42.3,0,63.5c0,2.2-4,6-6.3,6.1C81.5,76.3,66.4,76,51.5,76z
	 M51.3,69.1c13.1,0,26.3,0.2,39.4-0.2c1.9-0.1,5.1-3.4,5.2-5.3c0.4-17,0.4-34,0-50.9c0-1.9-3.3-5.3-5.1-5.3C64.7,7,38.5,7,12.4,7.3
	c-1.8,0-5.1,3.4-5.1,5.2c-0.4,17-0.4,34,0,50.9c0,1.9,3.5,5.3,5.5,5.3C25.6,69.3,38.4,69.1,51.3,69.1z"/>
<path id="XMLID_122_" class="st1" d="M51.3,69.1c-12.8,0-25.6,0.2-38.4-0.2c-2-0.1-5.5-3.4-5.5-5.3c-0.4-17-0.4-34,0-50.9
	c0-1.9,3.3-5.2,5.1-5.2C38.5,7,64.7,7,90.8,7.3c1.8,0,5,3.4,5.1,5.3c0.4,17,0.4,34,0,50.9c0,1.9-3.3,5.2-5.2,5.3
	C77.6,69.3,64.4,69.1,51.3,69.1z M60.4,23.8c-2.4,3.6-4.7,6.3-6.2,9.3c-4.8,10.2-11.1,16.5-24,14.4c-7.1-1.1-13.4,3.4-15.9,11.8
	c25.1,0,49.5,0,74.7,0c-3-9-5.8-17.3-8.9-26.3c-2.7,3.1-4.7,5.4-7,8.2C68.8,35.3,64.8,29.8,60.4,23.8z M42.1,27.6
	c-5.7-4-9-8.2-11.8-7.9c-3,0.3-7.6,4.9-7.6,7.6c0,2.8,4.4,7.5,7.4,7.9C32.9,35.6,36.3,31.5,42.1,27.6z"/>
<path id="XMLID_118_" class="st0" d="M60.4,23.8c4.4,6,8.4,11.4,12.7,17.4c2.4-2.7,4.3-5,7-8.2c3.1,9.1,5.8,17.3,8.9,26.3
	c-25.2,0-49.6,0-74.7,0c2.5-8.4,8.8-12.9,15.9-11.8c12.9,2,19.1-4.2,24-14.4C55.7,30.1,58,27.4,60.4,23.8z"/>
<path id="XMLID_117_" class="st0" d="M42.1,27.6c-5.9,3.9-9.3,8-12,7.6c-3-0.4-7.4-5.1-7.4-7.9c0-2.7,4.6-7.2,7.6-7.6
	C33.2,19.4,36.4,23.5,42.1,27.6z"/>
</svg>
