<?xml version="1.0" encoding="utf-8"?>
<!-- Generator: Adobe Illustrator 19.0.0, SVG Export Plug-In . SVG Version: 6.00 Build 0)  -->
<svg version="1.1" id="Layer_1" xmlns="http://www.w3.org/2000/svg" xmlns:xlink="http://www.w3.org/1999/xlink" x="0px" y="0px"
	 viewBox="0 0 195.5 203" style="enable-background:new 0 0 195.5 203;" xml:space="preserve">
<path id="XMLID_31_" d="M122.7,47c0,11.3,9.1,20.4,20.4,20.4s20.4-9.2,20.4-20.4c0-11.3-9.1-20.4-20.4-20.4S122.7,35.7,122.7,47z
	 M160.8,47c0,9.8-7.9,17.7-17.7,17.7c-9.8,0-17.7-7.9-17.7-17.7c0-9.8,7.9-17.7,17.7-17.7C152.9,29.3,160.8,37.2,160.8,47z"/>
<path id="XMLID_12_" d="M144.1,19.5c0.8,0,1.4-0.6,1.4-1.4V4.8c0-0.8-0.6-1.4-1.4-1.4c-0.8,0-1.4,0.6-1.4,1.4v13.3
	C142.8,18.9,143.4,19.5,144.1,19.5z"/>
<path id="XMLID_11_" d="M165.8,9.8c-0.7-0.4-1.5-0.2-1.9,0.5l-6.6,11.5c-0.4,0.7-0.2,1.5,0.5,1.9c0.2,0.1,0.4,0.2,0.7,0.2
	c0.5,0,0.9-0.2,1.2-0.7l6.6-11.5C166.6,11,166.4,10.2,165.8,9.8z"/>
<path id="XMLID_10_" d="M168.6,34.8c0.2,0,0.5-0.1,0.7-0.2l11.5-6.6c0.6-0.4,0.9-1.2,0.5-1.9c-0.4-0.6-1.2-0.9-1.9-0.5L168,32.3
	c-0.6,0.4-0.9,1.2-0.5,1.9C167.7,34.6,168.2,34.8,168.6,34.8z"/>
<path id="XMLID_9_" d="M115.6,48c0-0.8-0.6-1.4-1.4-1.4h-13.3c-0.8,0-1.4,0.6-1.4,1.4c0,0.8,0.6,1.4,1.4,1.4h13.3
	C115,49.4,115.6,48.8,115.6,48z"/>
<path id="XMLID_8_" d="M105.4,28l11.5,6.6c0.2,0.1,0.4,0.2,0.7,0.2c0.5,0,0.9-0.2,1.2-0.7c0.4-0.7,0.2-1.5-0.5-1.9l-11.5-6.6
	c-0.7-0.4-1.5-0.2-1.9,0.5C104.5,26.8,104.8,27.6,105.4,28z"/>
<path id="XMLID_7_" d="M127.8,23.9c0.2,0,0.5-0.1,0.7-0.2c0.7-0.4,0.9-1.2,0.5-1.9l-6.6-11.5c-0.4-0.7-1.2-0.9-1.9-0.5
	c-0.7,0.4-0.9,1.2-0.5,1.9l6.6,11.5C126.9,23.6,127.3,23.9,127.8,23.9z"/>
<path id="XMLID_6_" d="M144.1,74.6c-0.8,0-1.4,0.6-1.4,1.4v13.3c0,0.8,0.6,1.4,1.4,1.4c0.8,0,1.4-0.6,1.4-1.4V75.9
	C145.5,75.2,144.9,74.6,144.1,74.6z"/>
<path id="XMLID_5_" d="M130.2,71.4c-0.7-0.4-1.5-0.2-1.9,0.5l-6.6,11.5c-0.4,0.7-0.2,1.5,0.5,1.9c0.2,0.1,0.4,0.2,0.7,0.2
	c0.5,0,0.9-0.2,1.2-0.7l6.6-11.5C131.1,72.6,130.9,71.8,130.2,71.4z"/>
<path id="XMLID_4_" d="M117.9,61.2l-11.5,6.6c-0.6,0.4-0.9,1.2-0.5,1.9c0.3,0.4,0.7,0.7,1.2,0.7c0.2,0,0.5-0.1,0.7-0.2l11.5-6.6
	c0.6-0.4,0.9-1.2,0.5-1.9C119.4,61,118.6,60.8,117.9,61.2z"/>
<path id="XMLID_3_" d="M185.3,46.7H172c-0.8,0-1.4,0.6-1.4,1.4c0,0.8,0.6,1.4,1.4,1.4h13.3c0.8,0,1.4-0.6,1.4-1.4
	C186.7,47.3,186.1,46.7,185.3,46.7z"/>
<path id="XMLID_2_" d="M179.8,67.8l-11.5-6.6c-0.7-0.4-1.5-0.2-1.9,0.5c-0.4,0.7-0.2,1.5,0.5,1.9l11.5,6.6c0.2,0.1,0.4,0.2,0.7,0.2
	c0.5,0,0.9-0.2,1.2-0.7C180.7,69,180.5,68.2,179.8,67.8z"/>
<path id="XMLID_1_" d="M157.9,71.9c-0.4-0.7-1.2-0.9-1.9-0.5c-0.6,0.4-0.9,1.2-0.5,1.9l6.6,11.5c0.3,0.4,0.7,0.7,1.2,0.7
	c0.2,0,0.5-0.1,0.7-0.2c0.6-0.4,0.9-1.2,0.5-1.9L157.9,71.9z"/>
<path id="Moon" d="M57,108.5c-0.3,0.6-0.1,1.3,0.4,1.7c2.3,1.8,4.4,4.1,6.3,6.9c11,16.1,6.8,38.3-9.2,49.3
	c-15.7,10.9-37.5,6.9-48.5-8.8c-0.4-0.5-1.1-0.7-1.7-0.5c-0.6,0.2-1,0.9-0.9,1.5c1,6.5,3.5,12.8,7.2,18.3c6.8,10,17,16.7,28.8,18.9
	c11.7,2.2,23.6-0.3,33.5-7.1c12.7-8.7,19.5-22.9,19.5-37.3c0-8.8-2.5-17.7-7.8-25.4c-6.2-9.1-15.5-15.6-26.1-18.3
	C58,107.6,57.3,107.9,57,108.5z M82.4,127.6c13.1,19.3,8.2,45.7-10.9,58.9c-9.2,6.4-20.4,8.8-31.4,6.7c-11.1-2.1-20.6-8.4-27-17.7
	c-2.4-3.6-4.3-7.5-5.5-11.6c12.6,13.1,33.3,15.5,48.6,4.9c17.3-11.9,21.7-35.8,9.9-53.2c-0.8-1.1-1.6-2.2-2.5-3.2
	C71.2,115.4,77.7,120.7,82.4,127.6z"/>
</svg>
